<?xml version="1.0" encoding="UTF-8"?>
<svg width="20px" height="20px" viewBox="0 0 20 20" version="1.1" xmlns="http://www.w3.org/2000/svg" xmlns:xlink="http://www.w3.org/1999/xlink">
    <title>Fill 4</title>
    <g id="Old-design-with-changes" stroke="none" stroke-width="1" fill="none" fill-rule="evenodd">
        <g id="Sign-up-first-screen" transform="translate(-397.000000, -399.000000)" fill="#161514">
            <g id="Group-20" transform="translate(196.000000, 91.000000)">
                <g id="Group-12" transform="translate(51.000000, 137.000000)">
                    <g id="Group-2-Copy-2" transform="translate(1.000000, 160.000000)">
                        <path d="M158.939438,11 C153.451023,11 149,15.4504127 149,20.9406585 C149,25.332489 151.847947,29.0579476 155.79797,30.3723846 C156.295308,30.4639192 156.476547,30.1569731 156.476547,29.8933535 C156.476547,29.6578044 156.468004,29.0323179 156.463122,28.2030144 C153.698166,28.8034814 153.114786,26.8702705 153.114786,26.8702705 C152.662605,25.7218162 152.010878,25.4160906 152.010878,25.4160906 C151.108347,24.7997576 152.079224,24.8119622 152.079224,24.8119622 C153.076951,24.8821388 153.60175,25.8365396 153.60175,25.8365396 C154.488415,27.3554039 155.92856,26.916648 156.494854,26.6621818 C156.585168,26.0202191 156.842075,25.5820734 157.125832,25.3337095 C154.918628,25.0829047 152.59792,24.2298021 152.59792,20.4207419 C152.59792,19.3357517 152.985417,18.447866 153.621277,17.7534234 C153.518759,17.5020084 153.17764,16.4908561 153.718914,15.1227188 C153.718914,15.1227188 154.5531,14.8554377 156.452138,16.1418041 C157.244827,15.9209006 158.095489,15.811059 158.940659,15.8067874 C159.785218,15.811059 160.635269,15.9209006 161.429179,16.1418041 C163.326997,14.8554377 164.159962,15.1227188 164.159962,15.1227188 C164.702457,16.4908561 164.361338,17.5020084 164.25943,17.7534234 C164.89651,18.447866 165.280956,19.3357517 165.280956,20.4207419 C165.280956,24.2395658 162.956587,25.0798535 160.74267,25.3257765 C161.099045,25.6327225 161.416975,26.2392919 161.416975,27.1668426 C161.416975,28.4953149 161.40477,29.5674903 161.40477,29.8933535 C161.40477,30.1594141 161.584178,30.468801 162.088229,30.3717744 C166.035201,29.0542862 168.880707,25.3312686 168.880707,20.9406585 C168.880707,15.4504127 164.429684,11 158.939438,11" id="Fill-4"></path>
                    </g>
                </g>
            </g>
        </g>
    </g>
</svg>